<svg width="18" height="20" viewBox="0 0 18 20" fill="none" xmlns="http://www.w3.org/2000/svg">
<path d="M16.9017 14.5655L16.1391 13.2745C15.6754 12.4948 15.4337 11.634 15.4332 10.7611V8.13096C15.4318 6.79372 14.8541 5.50282 13.8086 4.50029C12.7631 3.49775 11.3214 2.85242 9.75393 2.68526V1.26375C9.75393 1.08162 9.66846 0.906948 9.5163 0.778162C9.36415 0.649377 9.15778 0.577026 8.94261 0.577026C8.72743 0.577026 8.52107 0.649377 8.36891 0.778162C8.21676 0.906948 8.13128 1.08162 8.13128 1.26375V2.68526C6.56379 2.85242 5.12214 3.49775 4.0766 4.50029C3.03107 5.50282 2.45344 6.79372 2.45201 8.13096V10.7611C2.45151 11.634 2.20979 12.4948 1.74615 13.2745L0.983509 14.5655C0.828588 14.8285 0.755677 15.1207 0.771702 15.4142C0.787726 15.7078 0.892154 15.993 1.07507 16.2428C1.25798 16.4925 1.5133 16.6986 1.81677 16.8413C2.12025 16.9841 2.4618 17.0588 2.80899 17.0583H4.93466C5.09534 17.8498 5.5905 18.5649 6.32788 19.0702C7.06525 19.5756 7.99455 19.8368 8.94261 19.8052C9.89067 19.8368 10.82 19.5756 11.5573 19.0702C12.2947 18.5649 12.7899 17.8498 12.9506 17.0583H15.0762C15.4234 17.0588 15.765 16.9841 16.0684 16.8413C16.3719 16.6986 16.6272 16.4925 16.8102 16.2428C16.9931 15.993 17.0975 15.7078 17.1135 15.4142C17.1295 15.1207 17.0566 14.8285 16.9017 14.5655ZM8.94261 18.4318C8.42184 18.4571 7.90578 18.3361 7.47449 18.0878C7.0432 17.8395 6.7208 17.4776 6.55731 17.0583H11.3279C11.1644 17.4776 10.842 17.8395 10.4107 18.0878C9.97944 18.3361 9.46337 18.4571 8.94261 18.4318Z" fill="#6E6E6E"/>
</svg>
