<svg width="24" height="20" viewBox="0 0 24 20" fill="none" xmlns="http://www.w3.org/2000/svg">
<path d="M23.1184 18.7007L18.7244 2.81491C18.3631 1.49789 17.1394 0.577148 15.7524 0.577148C15.7058 0.577148 15.6708 0.600458 15.6242 0.600458C15.5426 0.600458 15.4727 0.577148 15.3911 0.577148H7.67549C6.46337 0.577148 5.37946 1.393 5.05312 2.57016L1.54496 15.1925L0.461041 18.6774C0.321181 19.1436 0.577592 19.6331 1.03214 19.773C1.11372 19.7963 1.20696 19.8079 1.28855 19.8079C1.66151 19.8079 2.01116 19.5632 2.12771 19.1902L3.02514 16.3114H12.2792L11.7431 18.4559C11.6265 18.9221 11.9063 19.4 12.3841 19.5165C12.454 19.5399 12.524 19.5399 12.5939 19.5399C12.9902 19.5399 13.3398 19.2718 13.4447 18.8755L14.2489 15.6471C14.2839 15.4956 14.2722 15.3557 14.2373 15.2158L17.2909 4.20186L21.4401 19.1669C21.545 19.5515 21.8946 19.8079 22.2792 19.8079C22.3608 19.8079 22.4307 19.8079 22.5123 19.773C22.9785 19.6447 23.2466 19.1669 23.1184 18.7007ZM8.29321 5.23915H11.7897C12.2676 5.23915 12.6638 5.63542 12.6638 6.11328C12.6638 6.59114 12.2676 6.98741 11.7897 6.98741H8.29321C7.81535 6.98741 7.41908 6.59114 7.41908 6.11328C7.41908 5.63542 7.81535 5.23915 8.29321 5.23915ZM7.12771 10.4839C6.64985 10.4839 6.25358 10.0876 6.25358 9.60978C6.25358 9.13193 6.64985 8.73566 7.12771 8.73566H11.7897C12.2676 8.73566 12.6638 9.13193 12.6638 9.60978C12.6638 10.0876 12.2676 10.4839 11.7897 10.4839H7.12771Z" fill="#6E6E6E"/>
</svg>
