<svg width="15" height="13" viewBox="0 0 15 13" fill="none" xmlns="http://www.w3.org/2000/svg">
<path d="M11.8263 0.83313H3.30202C1.83158 0.83313 0.638184 2.02653 0.638184 3.49697V11.2541C0.638184 11.7371 0.908119 12.1633 1.34144 12.3764C1.51192 12.4617 1.69661 12.5043 1.88131 12.5043C2.15835 12.5043 2.42828 12.4119 2.6556 12.2272L4.27521 10.9344C4.68011 10.6076 5.19867 10.43 5.71723 10.43H11.8263C13.2967 10.43 14.4901 9.23665 14.4901 7.76621V3.49697C14.4901 2.02653 13.2967 0.83313 11.8263 0.83313ZM13.4246 7.75911C13.4246 8.63995 12.7071 9.35741 11.8263 9.35741H5.71723C4.95715 9.35741 4.20417 9.62024 3.60747 10.0962L1.98786 11.389C1.90972 11.453 1.83869 11.4316 1.80317 11.4103C1.76765 11.389 1.70372 11.3464 1.70372 11.247V3.49697C1.70372 2.61612 2.42118 1.89866 3.30202 1.89866H11.8263C12.7071 1.89866 13.4246 2.61612 13.4246 3.49697V7.75911Z" fill="#6E6E6E"/>
</svg>
