<svg width="19" height="19" viewBox="0 0 19 19" fill="none" xmlns="http://www.w3.org/2000/svg">
<path d="M11.9263 12.501C11.3537 13.0635 10.5964 13.372 9.80212 13.3539C9.0448 13.3539 8.30596 13.0454 7.75182 12.5191C7.17922 11.9565 6.86521 11.2125 6.86521 10.414C6.86521 9.61553 7.17922 8.88964 7.73335 8.34522L9.08174 7.00232C9.26646 6.82085 9.52505 6.71196 9.80212 6.71196C10.1346 6.71196 10.4671 6.87529 10.6518 7.1475C11.4276 8.29078 11.2983 9.85145 10.2824 10.8496C10.0422 11.1036 9.63588 11.1036 9.37728 10.8496C9.13716 10.5955 9.13716 10.1962 9.37728 9.96033C9.876 9.47035 10.0053 8.72631 9.74671 8.12745L8.65691 9.19814C8.32443 9.5248 8.12125 9.97848 8.13972 10.4503C8.13972 10.8677 8.32443 11.2851 8.61997 11.5754C9.28493 12.2469 10.3747 12.2287 11.0582 11.5754L12.0002 10.6318C13.9397 8.74446 12.6097 5.44165 9.876 5.38721C9.83906 5.38721 9.82059 5.38721 9.78365 5.38721C7.23463 5.38721 5.16586 7.47415 5.2028 9.97848C5.23975 12.4647 7.27157 14.4609 9.80212 14.4609C11.1505 14.4609 12.3511 13.8802 13.2008 12.9728C13.7365 12.3921 12.8683 11.5754 12.2957 12.138L11.9448 12.501H11.9263Z" fill="#D5F299"/>
<circle cx="9.73908" cy="9.92397" r="6.5784" stroke="#D5F299" stroke-width="1.36105"/>
</svg>
