<svg width="32" height="32" viewBox="0 0 32 32" fill="none" xmlns="http://www.w3.org/2000/svg">
<path d="M19.7722 20.7711C18.7865 21.7395 17.4827 22.2706 16.1154 22.2394C14.8117 22.2394 13.5397 21.7083 12.5858 20.8023C11.6 19.8339 11.0595 18.553 11.0595 17.1784C11.0595 15.8038 11.6 14.5541 12.554 13.6169L14.8753 11.3051C15.1933 10.9927 15.6384 10.8052 16.1154 10.8052C16.6878 10.8052 17.2601 11.0864 17.5781 11.555C18.9137 13.5232 18.6911 16.2099 16.9422 17.9282C16.5288 18.3655 15.8292 18.3655 15.384 17.9282C14.9707 17.4908 14.9707 16.8035 15.384 16.3974C16.2426 15.5539 16.4652 14.273 16.02 13.242L14.1439 15.0852C13.5715 15.6476 13.2218 16.4286 13.2536 17.2409C13.2536 17.9594 13.5715 18.6779 14.0803 19.1778C15.2251 20.3337 17.1012 20.3025 18.2777 19.1778L19.8994 17.5533C23.2382 14.3042 20.9488 8.61838 16.2426 8.52466C16.179 8.52466 16.1472 8.52466 16.0836 8.52466C11.6954 8.52466 8.13402 12.1174 8.19762 16.4286C8.26121 20.7086 11.759 24.1451 16.1154 24.1451C18.4367 24.1451 20.5036 23.1454 21.9663 21.5833C22.8885 20.5836 21.3939 19.1778 20.4082 20.1463L19.804 20.7711H19.7722Z" fill="white"/>
<circle cx="16.0081" cy="16.3356" r="12.1345" stroke="white" stroke-width="0.723767"/>
</svg>
