<svg width="24" height="20" viewBox="0 0 24 20" fill="none" xmlns="http://www.w3.org/2000/svg">
<path d="M23.244 10.9218C23.2309 10.7915 23.1861 10.6664 23.1135 10.5575C23.0408 10.4485 22.9426 10.3591 22.8274 10.2969C22.71 10.2279 22.5785 10.1868 22.4428 10.1767C22.5004 10.044 22.5486 9.90747 22.587 9.76802C22.8457 8.9023 22.8654 7.98271 22.6439 7.10672C22.4224 6.23073 21.9681 5.43098 21.329 4.79222C21.2333 4.69328 21.1137 4.62066 20.9818 4.58137C20.8499 4.54207 20.7101 4.53742 20.5758 4.56787C20.4457 4.59158 20.3234 4.64717 20.2199 4.72966C20.1164 4.81215 20.035 4.91898 19.9829 5.04061C19.9428 5.12875 19.9028 5.2249 19.8547 5.31304C19.1069 3.8802 17.9796 2.68055 16.5959 1.84529C15.2123 1.01002 13.6256 0.571293 12.0094 0.577083C10.3932 0.582873 8.80965 1.03296 7.43201 1.87812C6.05437 2.72327 4.93564 3.93097 4.19817 5.36913C4.15009 5.28099 4.11003 5.18484 4.06996 5.0967C4.01829 4.97598 3.93774 4.86981 3.8354 4.78754C3.73305 4.70526 3.61206 4.6494 3.48306 4.62486C3.35406 4.60033 3.221 4.60787 3.0956 4.64684C2.9702 4.6858 2.8563 4.75499 2.76392 4.84831C2.12485 5.48706 1.67051 6.28682 1.44905 7.16281C1.22758 8.0388 1.24724 8.95839 1.50595 9.82411C1.54431 9.96356 1.5925 10.1001 1.65017 10.2328C1.51094 10.233 1.37372 10.2659 1.24954 10.3289C1.13431 10.3911 1.03608 10.4806 0.963446 10.5895C0.89081 10.6985 0.845984 10.8236 0.832891 10.9539C0.74248 11.8526 0.895637 12.759 1.27629 13.5782C1.65694 14.3973 2.25106 15.0988 2.99628 15.6092L3.21262 15.7053V15.7855C3.38963 16.6716 3.80234 17.4935 4.40729 18.1647C5.01223 18.836 5.78701 19.3316 6.65001 19.5994C7.10968 19.7394 7.58774 19.8096 8.06823 19.8078C9.03239 19.794 9.97444 19.517 10.7925 19.0065H13.1963C14.0143 19.517 14.9564 19.794 15.9205 19.8078C16.401 19.8096 16.8791 19.7394 17.3388 19.5994C18.2137 19.3415 19.0018 18.8502 19.6187 18.1782C20.2355 17.5063 20.6578 16.6792 20.8403 15.7855C20.8403 15.7855 20.8403 15.7454 20.8403 15.7214L21.0646 15.5932C21.8153 15.0834 22.4142 14.3801 22.7979 13.5578C23.1816 12.7354 23.3357 11.8246 23.244 10.9218ZM20.8403 6.97164C21.1663 7.70892 21.2203 8.53799 20.9925 9.31131C20.7148 10.1752 20.1111 10.8967 19.3099 11.3225C19.2031 10.9143 19.1867 10.4877 19.2618 10.0725C19.3753 9.62275 19.5679 9.19679 19.8307 8.81453C19.9669 8.59018 20.1191 8.33378 20.2874 8.01327C20.4556 7.69277 20.688 7.34022 20.8403 6.97164ZM5.11961 7.20401C5.57812 5.73738 6.49313 4.45557 7.73123 3.54544C8.96932 2.63532 10.4658 2.14447 12.0024 2.14447C13.539 2.14447 15.0355 2.63532 16.2736 3.54544C17.5117 4.45557 18.4267 5.73738 18.8852 7.20401V7.25208L18.4525 8.05334C18.0912 8.58255 17.833 9.17515 17.6913 9.80007C17.5497 10.5834 17.616 11.3901 17.8836 12.1397C17.6723 12.2518 17.4735 12.3861 17.2907 12.5404C16.5198 13.2077 15.9811 14.1028 15.7523 15.0964C15.7405 15.1653 15.7405 15.2358 15.7523 15.3047C15.3944 15.3482 15.044 15.4399 14.7106 15.5771C13.8394 15.9575 13.1005 16.5877 12.5873 17.388H11.4656C10.9572 16.5758 10.2178 15.9341 9.34223 15.5451C9.00918 15.4069 8.65867 15.3152 8.3006 15.2727C8.31241 15.2037 8.31241 15.1333 8.3006 15.0643C8.06373 14.0706 7.51646 13.1781 6.73815 12.5163C6.55534 12.362 6.35657 12.2277 6.14522 12.1157C6.41282 11.3661 6.47912 10.5593 6.33752 9.77604C6.18363 9.14824 5.91171 8.55546 5.53626 8.0293L5.10358 7.22804V7.17997L5.11961 7.20401ZM3.21262 6.97164C3.3889 7.32419 3.57319 7.67675 3.76549 8.02129C3.95779 8.36583 4.08599 8.59018 4.2222 8.82254C4.48495 9.2048 4.67758 9.63077 4.79109 10.0805C4.86617 10.4957 4.84977 10.9223 4.74302 11.3305C3.94173 10.9047 3.33809 10.1832 3.06038 9.31932C2.83061 8.54353 2.88458 7.71127 3.21262 6.97164ZM2.53155 12.3401L3.62927 12.8128L4.47861 13.1333C4.92396 13.2648 5.34386 13.4707 5.72055 13.7423C6.03813 14.0218 6.29221 14.366 6.46572 14.7518C5.57897 14.9265 4.65904 14.7483 3.9017 14.2551C3.23328 13.7984 2.74794 13.1201 2.53155 12.3401ZM7.13877 18.045C6.36199 17.798 5.69957 17.2806 5.27185 16.5867C5.66446 16.6428 6.0731 16.6829 6.45771 16.7149L7.37114 16.779C7.83188 16.7687 8.29066 16.842 8.72526 16.9954C9.11269 17.1625 9.45769 17.4144 9.73484 17.7325C9.34453 17.9543 8.91396 18.0962 8.46824 18.1499C8.02252 18.2035 7.57057 18.1679 7.13877 18.045ZM16.9141 18.045C16.4844 18.1727 16.0336 18.2136 15.5879 18.1655C15.1422 18.1173 14.7106 17.9811 14.318 17.7646C14.5952 17.4464 14.9402 17.1945 15.3276 17.0274C15.7622 16.8741 16.221 16.8008 16.6817 16.8111L17.6352 16.747C18.0278 16.747 18.4365 16.6749 18.8211 16.6188C18.3778 17.3082 17.7007 17.8146 16.9141 18.045ZM20.1191 14.2551C19.3618 14.7483 18.4419 14.9265 17.5551 14.7518C17.7285 14.3638 17.9857 14.019 18.3083 13.7423C18.6809 13.4688 19.0985 13.2627 19.5422 13.1333L20.3915 12.8128L21.4893 12.3401C21.2811 13.1153 20.8076 13.793 20.1512 14.2551H20.1191Z" fill="#6E6E6E"/>
<path d="M14.5389 11.9616C13.9427 12.5578 13.1543 12.8847 12.3274 12.8655C11.5389 12.8655 10.7697 12.5386 10.1927 11.9809C9.59659 11.3847 9.26966 10.5963 9.26966 9.7501C9.26966 8.90395 9.59659 8.13472 10.1735 7.5578L11.5774 6.13472C11.7697 5.94241 12.0389 5.82703 12.3274 5.82703C12.6735 5.82703 13.0197 6.0001 13.212 6.28857C14.0197 7.5001 13.885 9.15395 12.8274 10.2116C12.5774 10.4809 12.1543 10.4809 11.885 10.2116C11.635 9.94241 11.635 9.51933 11.885 9.26933C12.4043 8.7501 12.5389 7.96164 12.2697 7.32703L11.135 8.46164C10.7889 8.8078 10.5774 9.28856 10.5966 9.78856C10.5966 10.2309 10.7889 10.6732 11.0966 10.9809C11.7889 11.6924 12.9235 11.6732 13.635 10.9809L14.6158 9.98087C16.635 7.98087 15.2504 4.48087 12.4043 4.42318C12.3658 4.42318 12.3466 4.42318 12.3081 4.42318C9.65428 4.42318 7.50043 6.63472 7.53889 9.28856C7.57735 11.9232 9.69274 14.0386 12.3274 14.0386C13.7312 14.0386 14.9812 13.4232 15.8658 12.4616C16.4235 11.8463 15.5197 10.9809 14.9235 11.577L14.5581 11.9616H14.5389Z" fill="#6E6E6E"/>
</svg>
