<svg width="29" height="27" viewBox="0 0 29 27" fill="none" xmlns="http://www.w3.org/2000/svg">
<path d="M5.89209 21.7798V13.7263" stroke="white" stroke-width="1.61086" stroke-linecap="round" stroke-linejoin="round"/>
<path d="M23.4648 21.7805V13.7118" stroke="white" stroke-width="1.61086" stroke-linecap="round" stroke-linejoin="round"/>
<path d="M4.13477 2.45038H25.2222" stroke="white" stroke-width="1.61086" stroke-linecap="round" stroke-linejoin="round"/>
<path d="M20.8287 10.9073C20.8287 11.4022 20.6866 11.8883 20.4167 12.3168C20.1468 12.7454 19.7586 13.1012 19.2911 13.3487C18.8236 13.5961 18.2933 13.7263 17.7535 13.7263C17.2137 13.7263 16.6833 13.5961 16.2158 13.3487C15.7484 13.1012 15.3601 12.7454 15.0902 12.3168C14.8203 11.8883 14.6782 11.4022 14.6782 10.9073" stroke="white" stroke-width="1.61086" stroke-linecap="round" stroke-linejoin="round"/>
<path d="M26.9796 10.9073C26.9796 11.4022 26.8375 11.8883 26.5676 12.3168C26.2977 12.7454 25.9095 13.1012 25.442 13.3487C24.9745 13.5961 24.4442 13.7263 23.9044 13.7263C23.3645 13.7263 22.8342 13.5961 22.3667 13.3487C21.8992 13.1012 21.511 12.7454 21.2411 12.3168C20.9712 11.8883 20.8291 11.4022 20.8291 10.9073" stroke="white" stroke-width="1.61086" stroke-linecap="round" stroke-linejoin="round"/>
<path d="M8.52795 10.9073C8.52795 11.4022 8.38585 11.8883 8.11594 12.3168C7.84603 12.7454 7.45782 13.1012 6.99032 13.3487C6.52282 13.5961 5.99251 13.7263 5.45269 13.7263C4.91287 13.7263 4.38257 13.5961 3.91507 13.3487C3.44757 13.1012 3.05936 12.7454 2.78945 12.3168C2.51954 11.8883 2.37744 11.4022 2.37744 10.9073" stroke="white" stroke-width="1.61086" stroke-linecap="round" stroke-linejoin="round"/>
<path d="M14.6783 10.9073C14.6783 11.4022 14.5362 11.8883 14.2663 12.3168C13.9964 12.7454 13.6082 13.1012 13.1407 13.3487C12.6732 13.5961 12.1429 13.7263 11.6031 13.7263C11.0633 13.7263 10.533 13.5961 10.0655 13.3487C9.59796 13.1012 9.20975 12.7454 8.93984 12.3168C8.66993 11.8883 8.52783 11.4022 8.52783 10.9073" stroke="white" stroke-width="1.61086" stroke-linecap="round" stroke-linejoin="round"/>
<path d="M2.37744 10.9076L4.13473 2.45038" stroke="white" stroke-width="1.61086"/>
<path d="M25.2222 2.45038L26.9795 10.9073" stroke="white" stroke-width="1.61086"/>
<path d="M20.8288 10.9074L19.9502 2.45038" stroke="white" stroke-width="1.61086"/>
<path d="M8.52783 10.9074L9.40647 2.45038" stroke="white" stroke-width="1.61086"/>
<path d="M14.6782 10.9074V2.45038" stroke="white" stroke-width="1.61086"/>
<path d="M4.13477 20.1697H25.2222" stroke="white" stroke-width="1.61086" stroke-linecap="round" stroke-linejoin="round"/>
<path d="M9.40674 25.0022H19.9505" stroke="white" stroke-width="1.61086"/>
<path d="M23.4648 21.7805C23.4648 22.635 23.0945 23.4544 22.4354 24.0586C21.7763 24.6628 20.8823 25.0022 19.9502 25.0022" stroke="white" stroke-width="1.61086" stroke-linecap="round" stroke-linejoin="round"/>
<path d="M5.89216 21.7805C5.89216 22.635 6.26245 23.4544 6.92156 24.0586C7.58067 24.6628 8.47462 25.0022 9.40674 25.0022" stroke="white" stroke-width="1.61086" stroke-linecap="round" stroke-linejoin="round"/>
<path d="M15.6885 17.6193C15.4695 17.8345 15.1798 17.9525 14.8759 17.9455C14.5862 17.9455 14.3035 17.8275 14.0915 17.6262C13.8725 17.411 13.7524 17.1263 13.7524 16.8209C13.7524 16.5154 13.8725 16.2377 14.0845 16.0294L14.6003 15.5157C14.671 15.4463 14.7699 15.4046 14.8759 15.4046C15.0031 15.4046 15.1303 15.4671 15.201 15.5712C15.4977 16.0086 15.4483 16.6057 15.0596 16.9875C14.9678 17.0847 14.8123 17.0847 14.7134 16.9875C14.6215 16.8903 14.6215 16.7376 14.7134 16.6473C14.9042 16.4599 14.9536 16.1752 14.8547 15.9461L14.4378 16.3557C14.3106 16.4807 14.2329 16.6543 14.2399 16.8348C14.2399 16.9944 14.3106 17.1541 14.4237 17.2652C14.678 17.5221 15.095 17.5151 15.3564 17.2652L15.7168 16.9042C16.4588 16.1822 15.95 14.9187 14.9042 14.8978C14.89 14.8978 14.883 14.8978 14.8688 14.8978C13.8937 14.8978 13.1023 15.6962 13.1164 16.6543C13.1305 17.6054 13.9078 18.369 14.8759 18.369C15.3917 18.369 15.8511 18.1469 16.1761 17.7998C16.381 17.5776 16.0489 17.2652 15.8299 17.4804L15.6956 17.6193H15.6885Z" fill="white"/>
</svg>
