<svg width="21" height="20" viewBox="0 0 21 20" fill="none" xmlns="http://www.w3.org/2000/svg">
<path d="M11.7125 4.99463H2.50371C1.83338 4.99463 1.218 5.33529 0.866348 5.90672C0.5147 6.47815 0.481733 7.18144 0.778436 7.77485L1.95426 10.1155C2.05316 10.3023 2.09712 10.5221 2.09712 10.7309V16.7858C2.09712 18.4562 3.44877 19.8078 5.11909 19.8078H11.7125C13.3828 19.8078 14.7345 18.4562 14.7345 16.7858V8.01661C14.7345 6.34628 13.3828 4.99463 11.7125 4.99463ZM10.6136 15.4122H6.218C5.76745 15.4122 5.39382 15.0386 5.39382 14.588C5.39382 14.1375 5.76745 13.7639 6.218 13.7639H10.6136C11.0641 13.7639 11.4378 14.1375 11.4378 14.588C11.4378 15.0386 11.0641 15.4122 10.6136 15.4122ZM10.6136 11.0166H6.218C5.76745 11.0166 5.39382 10.643 5.39382 10.1924C5.39382 9.74188 5.76745 9.36826 6.218 9.36826H10.6136C11.0641 9.36826 11.4378 9.74188 11.4378 10.1924C11.4378 10.643 11.0641 11.0166 10.6136 11.0166Z" fill="#036C5C"/>
<path d="M20.3608 1.48911C20.0092 0.917686 19.3938 0.577026 18.7234 0.577026H9.51465C7.93223 0.577026 6.64652 1.79681 6.51465 3.34626H11.7125C14.2839 3.34626 16.3828 5.44516 16.3828 8.01659V15.3792C17.9212 15.2364 19.13 13.9507 19.13 12.3902V6.32428C19.13 6.11549 19.185 5.89571 19.2729 5.70889L20.4487 3.36823C20.7454 2.76384 20.7125 2.07153 20.3608 1.5001V1.48911Z" fill="#036C5C"/>
</svg>
