<svg width="18" height="16" viewBox="0 0 18 16" fill="none" xmlns="http://www.w3.org/2000/svg">
<path d="M7.99865 8.69064C10.3985 8.69064 12.344 6.74516 12.344 4.3453C12.344 1.94544 10.3985 -3.05176e-05 7.99865 -3.05176e-05C5.59879 -3.05176e-05 3.65332 1.94544 3.65332 4.3453C3.65332 6.74516 5.59879 8.69064 7.99865 8.69064Z" fill="black"/>
<path d="M17.1464 8.74556L16.1493 7.74842C15.454 7.05316 14.3105 7.04402 13.6061 7.74842L9.92861 11.4259C9.67246 11.6821 9.49865 12.0114 9.43461 12.359L8.90402 15.1858C8.85828 15.4054 8.93147 15.6432 9.09613 15.7987C9.2242 15.9268 9.39802 16 9.58098 16C9.62672 16 9.66331 16 9.70905 15.9908L12.5358 15.4602C12.8926 15.3962 13.2128 15.2224 13.4689 14.9662L17.1464 11.2887C17.8508 10.5843 17.8508 9.44996 17.1464 8.74556Z" fill="black"/>
<path d="M8.08065 12.112C8.19957 11.4808 8.50146 10.9136 8.95886 10.4562L9.35223 10.0629H5.26304C2.90284 10.0629 0.853668 11.6638 0.286488 13.9508L0.0211939 15.0303C-0.0336945 15.2315 0.021194 15.4511 0.149267 15.6157C0.27734 15.7804 0.478598 15.881 0.689003 15.881H7.5958C7.51346 15.5792 7.48602 15.259 7.55006 14.9479L8.08979 12.112H8.08065Z" fill="black"/>
</svg>
