<svg width="16" height="16" viewBox="0 0 16 16" fill="none" xmlns="http://www.w3.org/2000/svg">
<path d="M8.42364 3.79883H7.57814C7.50079 3.79883 7.43751 3.86211 7.43751 3.93946V8.77871C7.43751 8.82442 7.4586 8.8666 7.49552 8.89297L10.4012 11.0147C10.4645 11.0604 10.5524 11.048 10.5981 10.9848L11.1008 10.2992C11.1483 10.2342 11.1342 10.1463 11.0709 10.1023L8.56427 8.29004V3.93946C8.56427 3.86211 8.50099 3.79883 8.42364 3.79883ZM12.2873 5.12071L15.0436 5.79395C15.1315 5.81504 15.2176 5.74824 15.2176 5.6586L15.2317 2.81973C15.2317 2.70196 15.0963 2.63516 15.0049 2.70899L12.2346 4.87285C12.2136 4.88905 12.1977 4.91083 12.1886 4.93568C12.1795 4.96054 12.1776 4.98746 12.1831 5.01335C12.1886 5.03924 12.2013 5.06305 12.2197 5.08204C12.2382 5.10103 12.2616 5.11444 12.2873 5.12071ZM15.2352 10.4135L14.2385 10.0707C14.2037 10.0588 14.1657 10.061 14.1325 10.0767C14.0993 10.0925 14.0737 10.1206 14.0609 10.1551C14.0275 10.2447 13.9924 10.3326 13.9555 10.4205C13.6426 11.1605 13.1943 11.8268 12.6213 12.398C12.0546 12.9665 11.383 13.4196 10.6438 13.7322C9.87793 14.056 9.05472 14.2222 8.22325 14.2209C7.38302 14.2209 6.56915 14.0574 5.80274 13.7322C5.06348 13.4196 4.39189 12.9665 3.8252 12.398C3.25392 11.8268 2.80567 11.1605 2.49102 10.4205C2.16902 9.65425 2.00405 8.83117 2.00587 8C2.00587 7.15977 2.16935 6.34414 2.49454 5.57774C2.80743 4.8377 3.25567 4.17149 3.82872 3.6002C4.3954 3.03175 5.06699 2.57866 5.80626 2.26602C6.56915 1.94082 7.38478 1.77735 8.22501 1.77735C9.06524 1.77735 9.87911 1.94082 10.6455 2.26602C11.3848 2.57866 12.0564 3.03175 12.6231 3.6002C12.8024 3.78125 12.9711 3.96934 13.1258 4.16797L14.177 3.34531C12.7936 1.57696 10.6402 0.43965 8.22149 0.441408C4.00977 0.443166 0.627743 3.86387 0.669931 8.07735C0.712118 12.217 4.07833 15.5586 8.22501 15.5586C11.4858 15.5586 14.2631 13.4914 15.3213 10.5963C15.3477 10.5225 15.309 10.4398 15.2352 10.4135Z" fill="#036C5C"/>
</svg>
