<svg width="20" height="20" viewBox="0 0 20 20" fill="none" xmlns="http://www.w3.org/2000/svg">
<path d="M1.6665 4.99996C1.6665 4.1159 2.01769 3.26806 2.64281 2.64294C3.26794 2.01782 4.11578 1.66663 4.99984 1.66663H14.9998C15.8839 1.66663 16.7317 2.01782 17.3569 2.64294C17.982 3.26806 18.3332 4.1159 18.3332 4.99996V15C18.3332 15.884 17.982 16.7319 17.3569 17.357C16.7317 17.9821 15.8839 18.3333 14.9998 18.3333H4.99984C4.11578 18.3333 3.26794 17.9821 2.64281 17.357C2.01769 16.7319 1.6665 15.884 1.6665 15V4.99996Z" stroke="#1CBC00" stroke-width="1.75" stroke-linecap="round" stroke-linejoin="round"/>
<path d="M7.08333 9.16667C8.23393 9.16667 9.16667 8.23393 9.16667 7.08333C9.16667 5.93274 8.23393 5 7.08333 5C5.93274 5 5 5.93274 5 7.08333C5 8.23393 5.93274 9.16667 7.08333 9.16667Z" stroke="#1CBC00" stroke-width="1.75" stroke-linecap="round" stroke-linejoin="round"/>
<path d="M12.105 10.5173L5 18.3332H15.1108C15.9655 18.3332 16.7851 17.9937 17.3895 17.3893C17.9938 16.785 18.3333 15.9653 18.3333 15.1107V14.9998C18.3333 14.6115 18.1875 14.4623 17.925 14.1748L14.5667 10.5123C14.4101 10.3416 14.2198 10.2054 14.0076 10.1123C13.7955 10.0193 13.5664 9.97146 13.3347 9.97193C13.1031 9.9724 12.8741 10.0211 12.6624 10.115C12.4507 10.209 12.2608 10.346 12.105 10.5173V10.5173Z" stroke="#1CBC00" stroke-width="1.75" stroke-linecap="round" stroke-linejoin="round"/>
</svg>
