<svg width="14" height="14" viewBox="0 0 14 14" fill="none" xmlns="http://www.w3.org/2000/svg">
<path d="M5.38673 6.78934C7.12356 6.78934 8.53555 5.37734 8.53555 3.64052C8.53555 1.9037 7.12356 0.491699 5.38673 0.491699C3.64991 0.491699 2.23792 1.9037 2.23792 3.64052C2.23792 5.37734 3.64991 6.78934 5.38673 6.78934ZM5.38673 1.48606C6.57334 1.48606 7.54119 2.45391 7.54119 3.64052C7.54119 4.82713 6.57334 5.79497 5.38673 5.79497C4.20013 5.79497 3.23228 4.82713 3.23228 3.64052C3.23228 2.45391 4.20013 1.48606 5.38673 1.48606Z" fill="black"/>
<path d="M9.94137 8.97693C8.19129 7.98919 6.50087 7.78369 5.38718 7.78369C3.38519 7.78369 1.80747 8.43334 0.832994 8.97693C0.475023 9.18243 0.249634 9.56692 0.249634 9.98455V12.2583C0.249634 12.8947 0.773332 13.4184 1.40972 13.4184H9.36463C10.001 13.4184 10.5247 12.8947 10.5247 12.2583V9.99118C10.5247 9.56692 10.2993 9.18243 9.94137 8.97693ZM9.53036 12.2583C9.53036 12.3511 9.45744 12.4241 9.36463 12.4241H1.40972C1.31692 12.4241 1.244 12.3511 1.244 12.2583V9.98455C1.244 9.92489 1.27051 9.87186 1.32355 9.84534C2.19196 9.36142 3.59732 8.77806 5.38718 8.77806C6.37491 8.77806 7.88635 8.96367 9.45081 9.84534C9.49722 9.87186 9.53036 9.93152 9.53036 9.99118V12.2583Z" fill="black"/>
<path d="M9.8019 2.02309C9.60965 2.21533 9.60965 2.53353 9.8019 2.72577C10.3256 3.24947 10.3256 4.098 9.8019 4.61506C9.60965 4.80731 9.60965 5.1255 9.8019 5.31775C9.90133 5.41718 10.0273 5.46359 10.1532 5.46359C10.2792 5.46359 10.4051 5.41718 10.5046 5.31775C11.4128 4.40956 11.4128 2.93127 10.5046 2.02309C10.3123 1.83085 9.99414 1.83085 9.8019 2.02309Z" fill="black"/>
<path d="M12.2215 1.38686C12.0293 1.19461 11.7111 1.19461 11.5188 1.38686C11.3266 1.5791 11.3266 1.8973 11.5188 2.08954C12.4005 2.97121 12.4005 4.39647 11.5188 5.27814C11.3266 5.47038 11.3266 5.78858 11.5188 5.98082C11.6183 6.08026 11.7442 6.12666 11.8702 6.12666C11.9961 6.12666 12.1221 6.08026 12.2215 5.98082C13.4877 4.71466 13.4877 2.65302 12.2215 1.38686Z" fill="black"/>
</svg>
