<svg width="12" height="14" viewBox="0 0 12 14" fill="none" xmlns="http://www.w3.org/2000/svg">
<path d="M11.6556 8.32064C11.6556 7.74153 11.3227 7.23563 10.8368 6.98268C10.9367 6.78299 10.9899 6.55667 10.9899 6.32369C10.9899 5.49828 10.3176 4.82597 9.4922 4.82597H6.33035V3.1685C6.33035 2.26987 5.88437 1.43114 5.13218 0.931905C4.77938 0.69227 4.32008 0.6723 3.94066 0.871996C3.56124 1.07169 3.32826 1.46443 3.32826 1.89044V3.68105C3.32826 4.3933 2.82237 5.01235 2.12343 5.15214C0.891974 5.39843 0 6.4901 0 7.74153V9.89824C0 10.9566 0.625713 11.9085 1.60422 12.3279L3.70768 13.2332C4.60631 13.6192 5.55154 13.8123 6.52339 13.8123H8.15424C8.97965 13.8123 9.65196 13.14 9.65196 12.3146C9.65196 12.1415 9.61867 11.9684 9.56542 11.8153C10.3575 11.7754 10.9833 11.1164 10.9833 10.3176C10.9833 10.078 10.93 9.8583 10.8302 9.6586C11.3161 9.41231 11.6489 8.90642 11.6489 8.32064H11.6556ZM10.1579 8.81988H7.16242C6.8895 8.81988 6.66318 9.0462 6.66318 9.31912C6.66318 9.59204 6.8895 9.81836 7.16242 9.81836H9.4922C9.76512 9.81836 9.99144 10.0447 9.99144 10.3176C9.99144 10.5905 9.76512 10.8168 9.4922 10.8168H7.16242C6.8895 10.8168 6.66318 11.0432 6.66318 11.3161C6.66318 11.589 6.8895 11.8153 7.16242 11.8153H8.1609C8.43381 11.8153 8.66013 12.0416 8.66013 12.3146C8.66013 12.5875 8.43381 12.8138 8.1609 12.8138H6.53005C5.69133 12.8138 4.87257 12.6474 4.10707 12.3146L2.00361 11.4093C1.39787 11.1497 1.00513 10.5572 1.00513 9.89824V7.74153C1.00513 6.96271 1.55763 6.28375 2.32978 6.13065C3.49467 5.89767 4.3334 4.86591 4.3334 3.68105V1.8971C4.3334 1.81057 4.38665 1.77063 4.41993 1.75731C4.4399 1.75066 4.46653 1.73734 4.49315 1.73734C4.51978 1.73734 4.5464 1.73734 4.57969 1.76397C5.0523 2.07683 5.33187 2.60269 5.33187 3.1685V5.32521C5.33187 5.59813 5.5582 5.82445 5.83111 5.82445H9.4922C9.76512 5.82445 9.99144 6.05077 9.99144 6.32369C9.99144 6.5966 9.76512 6.82293 9.4922 6.82293H7.16242C6.8895 6.82293 6.66318 7.04925 6.66318 7.32217C6.66318 7.59508 6.8895 7.8214 7.16242 7.8214H10.1579C10.4308 7.8214 10.6571 8.04773 10.6571 8.32064C10.6571 8.59356 10.4308 8.81988 10.1579 8.81988Z" fill="#6E6E6E"/>
</svg>
