<svg width="20" height="19" viewBox="0 0 20 19" fill="none" xmlns="http://www.w3.org/2000/svg">
<path fill-rule="evenodd" clip-rule="evenodd" d="M8.2146 7.10038H11.1549V8.56496C11.5784 7.72263 12.6646 6.96579 14.2962 6.96579C17.4241 6.96579 18.1666 8.64254 18.1666 11.719V17.4166H15V12.4196C15 10.6676 14.5764 9.67963 13.4982 9.67963C12.0027 9.67963 11.3813 10.7444 11.3813 12.4188V17.4166H8.2146V7.10038ZM2.78456 17.282H5.95123V6.96579H2.78456V17.282ZM6.40485 3.602C6.40497 3.86743 6.35233 4.13023 6.24999 4.37513C6.14766 4.62004 5.99766 4.84216 5.80873 5.02859C5.42588 5.40908 4.90766 5.62206 4.3679 5.62075C3.82908 5.62039 3.31206 5.40795 2.92865 5.02938C2.7404 4.84232 2.59091 4.61995 2.48875 4.37501C2.38659 4.13007 2.33377 3.86739 2.33331 3.602C2.33331 3.06604 2.54706 2.55304 2.92944 2.17463C3.31251 1.79554 3.82975 1.58302 4.36869 1.58325C4.9086 1.58325 5.42635 1.79621 5.80873 2.17463C6.19031 2.55304 6.40485 3.06604 6.40485 3.602Z" fill="black"/>
</svg>
