<svg width="14" height="17" viewBox="0 0 14 17" fill="none" xmlns="http://www.w3.org/2000/svg">
<path d="M13.3485 9.61552C13.0572 9.32427 12.5859 9.32281 12.2965 9.61227L7.94133 13.9674C6.50663 15.4021 4.16556 15.3948 2.72196 13.9512C1.27836 12.5076 1.27111 10.1666 2.70581 8.73187L8.46766 2.97002C9.32764 2.11004 10.7317 2.11438 11.597 2.9797C12.4624 3.84502 12.4667 5.2491 11.6067 6.10908L6.87964 10.8362C6.58529 11.1305 6.10557 11.129 5.8094 10.8329C5.51322 10.5367 5.51173 10.057 5.80608 9.76261L9.12644 6.44225C9.41589 6.1528 9.41444 5.6815 9.12318 5.39024C8.83193 5.09899 8.36063 5.09753 8.07117 5.38699L4.75152 8.70664C3.87895 9.57921 3.88336 11.0029 4.76134 11.8809C5.63932 12.7589 7.06304 12.7633 7.93561 11.8907L12.662 7.16435C14.1002 5.72615 14.0929 3.37807 12.6458 1.93095C11.1987 0.483828 8.85059 0.476562 7.4124 1.91475L1.65054 7.67661C-0.362365 9.68951 -0.352198 12.9746 1.67321 15C3.69861 17.0254 6.98369 17.0356 8.9966 15.0227L13.3517 10.6675C13.6412 10.3781 13.6397 9.90678 13.3485 9.61552Z" fill="#036C5C"/>
</svg>
