<svg width="16" height="15" viewBox="0 0 16 15" fill="none" xmlns="http://www.w3.org/2000/svg">
<path d="M7.70957 9.27132C10.0508 9.27132 11.9487 7.37338 11.9487 5.03214C11.9487 2.69091 10.0508 0.792969 7.70957 0.792969C5.36834 0.792969 3.4704 2.69091 3.4704 5.03214C3.4704 7.37338 5.36834 9.27132 7.70957 9.27132Z" fill="black"/>
<path d="M7.70938 10.6099C5.82629 10.6099 4.19309 11.8861 3.71117 13.7959C3.65762 14.0012 3.71117 14.2065 3.83611 14.376C3.96106 14.5367 4.1574 14.6348 4.36266 14.6348L11.0382 14.5545C11.2435 14.5545 11.4399 14.4564 11.5559 14.2957C11.6808 14.1351 11.7254 13.9209 11.6719 13.7245C11.2167 11.895 9.58354 10.6188 7.69153 10.6188L7.70938 10.6099Z" fill="black"/>
<path d="M2.41715 13.4657C2.70273 12.3145 3.33638 11.3328 4.18421 10.6099H3.25606C1.89952 10.6099 0.721475 11.5291 0.391265 12.8499L0.159226 13.7959C0.105678 13.9923 0.159226 14.2065 0.28417 14.3671C0.409114 14.5278 0.605455 14.6259 0.81072 14.6259H2.50639C2.37252 14.2511 2.33682 13.8495 2.43499 13.4657H2.41715Z" fill="black"/>
<path d="M15.2596 13.7335L14.849 12.5733C14.4296 11.4042 13.314 10.6099 12.0646 10.6099H11.2703C12.0913 11.3238 12.716 12.2698 12.9927 13.3854C13.0998 13.8049 13.0552 14.2332 12.9035 14.6259H14.6348C14.849 14.6259 15.0543 14.5188 15.1792 14.3403C15.3042 14.1618 15.3309 13.9387 15.2596 13.7335Z" fill="black"/>
<path d="M11.3683 9.23581C11.4844 9.24474 11.6093 9.27151 11.7253 9.27151C13.5727 9.27151 15.072 7.77218 15.072 5.92479C15.072 4.46116 14.1171 3.22064 12.8052 2.77441C13.1176 3.47053 13.2871 4.22912 13.2871 5.03233C13.2871 6.71015 12.5375 8.20948 11.3683 9.23581Z" fill="black"/>
<path d="M3.69352 9.27151C3.81846 9.27151 3.93448 9.24474 4.0505 9.23581C2.87246 8.20948 2.13172 6.71015 2.13172 5.03233C2.13172 4.22912 2.31021 3.46161 2.61365 2.77441C1.30173 3.22957 0.346802 4.46116 0.346802 5.92479C0.346802 7.77218 1.84613 9.27151 3.69352 9.27151Z" fill="black"/>
</svg>
