<svg width="12" height="16" viewBox="0 0 12 16" fill="none" xmlns="http://www.w3.org/2000/svg">
<path d="M10.4516 5.84202V4.71792C10.4516 2.11689 8.45419 -3.05176e-05 6 -3.05176e-05C3.54581 -3.05176e-05 1.54839 2.11689 1.54839 4.71792V5.84202C0.658065 6.11279 0 6.97433 0 7.99997V13.7436C0 14.9907 0.952258 16 2.12903 16H9.87097C11.0477 16 12 14.9907 12 13.7436V7.99997C12 6.97433 11.3419 6.11279 10.4516 5.84202ZM6 2.87176C6.96 2.87176 7.74194 3.70048 7.74194 4.71792V5.74356H4.25806V4.71792C4.25806 3.70048 5.04 2.87176 6 2.87176ZM6.58065 11.7497V12.923C6.58065 13.2595 6.31742 13.5384 6 13.5384C5.68258 13.5384 5.41935 13.2595 5.41935 12.923V11.7497C4.96258 11.52 4.64516 11.0277 4.64516 10.4615C4.64516 9.67382 5.25677 9.02561 6 9.02561C6.74323 9.02561 7.35484 9.67382 7.35484 10.4615C7.35484 11.0359 7.03742 11.52 6.58065 11.7497Z" fill="black"/>
</svg>
