<svg width="32" height="32" viewBox="0 0 32 32" fill="none" xmlns="http://www.w3.org/2000/svg">
<path fill-rule="evenodd" clip-rule="evenodd" d="M17.7123 2.73818C15.9882 4.74346 15.8769 8.00032 17.4175 10.1618V10.9135C17.4175 11.1459 17.398 11.3753 17.3618 11.6018L15.1457 10.9379C15.181 10.1285 14.9454 9.33044 14.4761 8.67C14.0068 8.00956 13.3306 7.52449 12.5547 7.29154L9.13769 6.26645C8.57144 8.18972 9.65511 10.2106 11.5784 10.7964L14.9953 11.8215L14.9973 11.8176L17.1295 12.457C17.0224 12.731 16.8866 12.9928 16.7243 13.238C16.1776 14.0581 15.9043 15.0246 15.9043 16.0009V16.2694L13.7047 15.6104C13.7412 14.8023 13.5068 14.0051 13.0386 13.3454C12.5704 12.6857 11.8954 12.2012 11.1205 11.9689L7.70353 10.9438C7.12753 12.8671 8.22096 14.888 10.1345 15.4737L13.5514 16.4988L13.5534 16.49L15.9033 17.1939V18.2971C13.9402 18.3829 12.049 19.0605 10.4781 20.2409H9.0137C8.74034 20.2409 8.52556 20.4557 8.52556 20.729V23.6579C8.52556 23.9312 8.74034 24.146 9.0137 24.146H9.50965L10.2711 28.7208C10.3981 29.4628 11.0326 29.9998 11.7746 29.9998H20.9028C21.6448 29.9998 22.2891 29.4628 22.4063 28.7208L23.1756 24.146H23.6569C23.9302 24.146 24.145 23.9312 24.145 23.6579V20.729C24.145 20.4557 23.9302 20.2409 23.6569 20.2409H22.1934C20.6263 19.0634 18.7402 18.3863 16.7819 18.2981V17.8939L18.3332 17.4292L18.3352 17.4351L21.7522 16.41C23.6657 15.8242 24.7591 13.8033 24.1831 11.88L20.7661 12.9051C19.9914 13.1388 19.3166 13.6239 18.8484 14.2839C18.3803 14.944 18.1454 15.7412 18.1809 16.5496L16.7819 16.9694V15.9999C16.7819 15.1799 17.0162 14.3793 17.4653 13.6959C17.7638 13.2441 17.987 12.7469 18.1263 12.2237L19.1328 11.922L19.1357 11.9289L22.5527 10.9038C24.4662 10.318 25.5596 8.29711 24.9836 6.37384L21.5667 7.39893C20.7907 7.63013 20.1144 8.11456 19.6459 8.77493C19.1773 9.4353 18.9434 10.2336 18.9815 11.0424L18.2844 11.2513C18.292 11.1389 18.2959 11.0262 18.2961 10.9135V9.87087C19.6727 7.77382 19.5868 4.72588 18.0033 2.74892C17.9232 2.64251 17.7914 2.64251 17.7123 2.73916V2.73818ZM10.4996 24.146H22.1856L21.4437 28.5588L21.4417 28.5685C21.4204 28.6961 21.3544 28.8119 21.2554 28.8953C21.1565 28.9787 21.0312 29.0241 20.9018 29.0235H11.7736C11.643 29.0223 11.517 28.9749 11.4179 28.8897C11.3189 28.8044 11.2533 28.6868 11.2328 28.5578L10.4996 24.146ZM23.1697 23.1619V21.2172H9.50184V23.1697H9.50867V23.1619H23.1697Z" fill="white"/>
</svg>
