<svg width="21" height="20" viewBox="0 0 21 20" fill="none" xmlns="http://www.w3.org/2000/svg">
<path d="M10.5387 0.577026C5.233 0.577026 0.92334 4.88669 0.92334 10.1924C0.92334 15.4981 5.233 19.8078 10.5387 19.8078C15.8444 19.8078 20.1541 15.4981 20.1541 10.1924C20.1541 4.88669 15.8444 0.577026 10.5387 0.577026ZM10.5387 3.28906C12.5801 3.28906 14.2369 4.94586 14.2369 6.98728C14.2369 9.0287 12.5801 10.6855 10.5387 10.6855C8.4973 10.6855 6.8405 9.0287 6.8405 6.98728C6.8405 4.94586 8.4973 3.28906 10.5387 3.28906ZM15.8839 16.1687C15.5486 16.3956 15.0851 16.3068 14.8583 15.9616C13.8918 14.5119 12.2843 13.6441 10.5387 13.6441C8.69454 13.6441 6.97857 14.6401 6.05155 16.2378C5.91348 16.4745 5.66693 16.6027 5.41052 16.6027C5.28231 16.6027 5.15411 16.5731 5.03577 16.504C4.68074 16.2969 4.56239 15.8433 4.76949 15.4981C5.95293 13.4468 8.162 12.1747 10.5387 12.1747C12.7774 12.1747 14.8484 13.2891 16.091 15.153C16.3178 15.4981 16.2291 15.9518 15.8839 16.1786V16.1687Z" fill="#6E6E6E"/>
<path d="M10.5388 9.20618C11.7642 9.20618 12.7577 8.21273 12.7577 6.98725C12.7577 5.76176 11.7642 4.76831 10.5388 4.76831C9.31328 4.76831 8.31982 5.76176 8.31982 6.98725C8.31982 8.21273 9.31328 9.20618 10.5388 9.20618Z" fill="#6E6E6E"/>
</svg>
