<svg width="16" height="16" viewBox="0 0 16 16" fill="none" xmlns="http://www.w3.org/2000/svg">
<path d="M11.4545 4.53337C11.7866 4.53337 12.0559 4.26412 12.0559 3.93197C12.0559 3.59982 11.7866 3.33057 11.4545 3.33057C11.1223 3.33057 10.8531 3.59982 10.8531 3.93197C10.8531 4.26412 11.1223 4.53337 11.4545 4.53337Z" fill="#206A5D"/>
<path d="M14.9989 0.6603C14.5659 0.219271 13.9805 -0.0293089 13.3551 0.00276595L9.70655 0.107009C9.15325 0.123047 8.62402 0.347571 8.22308 0.732469L0.460974 8.31015C-0.124392 8.87948 -0.156466 9.80163 0.388806 10.3629L4.95145 15.0378C5.21607 15.3025 5.56087 15.4548 5.94577 15.4548H5.98587C6.36274 15.4468 6.72359 15.2864 7.00424 15.0218L14.7664 7.44413C15.1673 7.05923 15.3998 6.53801 15.4319 5.97671L15.6163 2.32819C15.6484 1.69471 15.4319 1.10935 14.9989 0.668319V0.6603ZM11.4546 5.73614C10.4603 5.73614 9.65042 4.92625 9.65042 3.93193C9.65042 2.93761 10.4603 2.12772 11.4546 2.12772C12.4489 2.12772 13.2588 2.93761 13.2588 3.93193C13.2588 4.92625 12.4489 5.73614 11.4546 5.73614Z" fill="#206A5D"/>
</svg>
