<svg width="20" height="19" viewBox="0 0 20 19" fill="none" xmlns="http://www.w3.org/2000/svg">
<g clip-path="url(#clip0_1856_29921)">
<path d="M18.3125 11.875L19.5 17.8125H0.5L1.6875 11.875H3.83984C3.52441 11.3307 3.2863 10.7586 3.12549 10.1587C2.96468 9.55876 2.88118 8.94336 2.875 8.3125C2.875 7.6569 2.9585 7.02604 3.12549 6.41992C3.29248 5.8138 3.53369 5.24788 3.84912 4.72217C4.16455 4.19645 4.53564 3.71403 4.9624 3.2749C5.38916 2.83577 5.86849 2.46468 6.40039 2.16162C6.93229 1.85856 7.5013 1.62044 8.10742 1.44727C8.71354 1.27409 9.3444 1.1875 10 1.1875C10.6556 1.1875 11.2865 1.271 11.8926 1.43799C12.4987 1.60498 13.0646 1.84619 13.5903 2.16162C14.116 2.47705 14.5985 2.84814 15.0376 3.2749C15.4767 3.70166 15.8478 4.18099 16.1509 4.71289C16.4539 5.24479 16.6921 5.8138 16.8652 6.41992C17.0384 7.02604 17.125 7.6569 17.125 8.3125C17.125 8.94336 17.0446 9.55876 16.8838 10.1587C16.723 10.7586 16.4818 11.3307 16.1602 11.875H18.3125ZM15.9375 8.3125C15.9375 8.11458 15.9282 7.91667 15.9097 7.71875C15.8911 7.52083 15.8602 7.32292 15.8169 7.125H13.5068C13.5439 7.52702 13.5625 7.92285 13.5625 8.3125C13.5625 8.70833 13.5439 9.10417 13.5068 9.5H15.8169C15.854 9.30208 15.8818 9.10417 15.9004 8.90625C15.9189 8.70833 15.9313 8.51042 15.9375 8.3125ZM7.68066 9.5H12.3193C12.3564 9.10417 12.375 8.70833 12.375 8.3125C12.375 7.92285 12.3564 7.52702 12.3193 7.125H7.68066C7.64355 7.52702 7.625 7.92285 7.625 8.3125C7.625 8.70833 7.64355 9.10417 7.68066 9.5ZM12.1523 10.6875H7.84766C7.8724 10.8298 7.91569 11.0153 7.97754 11.2441C8.03939 11.473 8.1167 11.7235 8.20947 11.9956C8.30225 12.2677 8.41048 12.5337 8.53418 12.7935C8.65788 13.0532 8.79395 13.2944 8.94238 13.5171C9.09082 13.7397 9.25472 13.916 9.43408 14.0459C9.61344 14.1758 9.80208 14.2438 10 14.25C10.1979 14.25 10.3835 14.182 10.5566 14.0459C10.7298 13.9098 10.8937 13.7336 11.0483 13.5171C11.203 13.3006 11.339 13.0594 11.4565 12.7935C11.5741 12.5275 11.6823 12.2616 11.7812 11.9956C11.8802 11.7297 11.9575 11.4823 12.0132 11.2534C12.0688 11.0246 12.1152 10.8359 12.1523 10.6875ZM7.72705 13.7954C7.44255 13.3254 7.2137 12.8244 7.04053 12.2925C6.86735 11.7606 6.73438 11.2256 6.6416 10.6875H4.56348C4.71191 11.0153 4.89746 11.3338 5.12012 11.6431C5.34277 11.9523 5.59017 12.2461 5.8623 12.5244C6.13444 12.8027 6.43131 13.047 6.75293 13.2573C7.07454 13.4676 7.39925 13.647 7.72705 13.7954ZM13.3584 10.6875C13.2594 11.2194 13.1265 11.7513 12.9595 12.2832C12.7925 12.8151 12.5667 13.3192 12.2822 13.7954C12.6162 13.647 12.9378 13.4645 13.2471 13.248C13.5563 13.0316 13.8501 12.7904 14.1284 12.5244C14.4067 12.2585 14.6572 11.9678 14.8799 11.6523C15.1025 11.3369 15.2881 11.0153 15.4365 10.6875H13.3584ZM15.4365 5.9375C15.1211 5.23861 14.6943 4.62012 14.1562 4.08203C13.6182 3.54395 12.9904 3.12646 12.2729 2.82959C12.5575 3.29964 12.7832 3.80062 12.9502 4.33252C13.1172 4.86442 13.2533 5.39941 13.3584 5.9375H15.4365ZM10 2.375C9.80208 2.375 9.61654 2.44303 9.44336 2.5791C9.27018 2.71517 9.10628 2.89144 8.95166 3.10791C8.79704 3.32438 8.66097 3.56559 8.54346 3.83154C8.42594 4.09749 8.31771 4.36344 8.21875 4.62939C8.11979 4.89534 8.03939 5.14274 7.97754 5.37158C7.91569 5.60042 7.8724 5.78906 7.84766 5.9375H12.1523C12.1214 5.79525 12.0781 5.6097 12.0225 5.38086C11.9668 5.15202 11.8895 4.90153 11.7905 4.62939C11.6916 4.35726 11.5833 4.09131 11.4658 3.83154C11.3483 3.57178 11.2122 3.33057 11.0576 3.10791C10.903 2.88525 10.7391 2.70898 10.5659 2.5791C10.3927 2.44922 10.2041 2.38118 10 2.375ZM7.72705 2.82959C7.01579 3.12646 6.39111 3.54395 5.85303 4.08203C5.31494 4.62012 4.88509 5.23861 4.56348 5.9375H6.6416C6.74056 5.39941 6.87354 4.86442 7.04053 4.33252C7.20752 3.80062 7.43636 3.29964 7.72705 2.82959ZM4.18311 7.125C4.146 7.32292 4.11816 7.52083 4.09961 7.71875C4.08105 7.91667 4.06868 8.11458 4.0625 8.3125C4.0625 8.51042 4.07178 8.70833 4.09033 8.90625C4.10889 9.10417 4.13981 9.30208 4.18311 9.5H6.49316C6.45605 9.10417 6.4375 8.70833 6.4375 8.3125C6.4375 7.92285 6.45605 7.52702 6.49316 7.125H4.18311ZM1.94727 16.625H18.0527L17.3384 13.0625H15.2974C14.9634 13.4398 14.5954 13.7738 14.1934 14.0645C13.7913 14.3551 13.3615 14.6056 12.9038 14.8159C12.4461 15.0262 11.9761 15.1808 11.4937 15.2798C11.0112 15.3787 10.5133 15.4313 10 15.4375C9.49284 15.4375 8.99495 15.3849 8.50635 15.2798C8.01774 15.1746 7.54769 15.02 7.09619 14.8159C6.64469 14.6118 6.21794 14.3644 5.81592 14.0737C5.4139 13.783 5.04281 13.446 4.70264 13.0625H2.66162L1.94727 16.625Z" fill="black"/>
</g>
<defs>
<clipPath id="clip0_1856_29921">
<rect width="19" height="19" fill="white" transform="translate(0.5)"/>
</clipPath>
</defs>
</svg>
